<svg width="32" height="32" viewBox="0 0 32 32" fill="none" xmlns="http://www.w3.org/2000/svg">
<path fill-rule="evenodd" clip-rule="evenodd" d="M25.7849 8.51168C25.7849 8.51168 22.5107 5 15.9986 5C9.48651 5 6.21517 8.51168 6.21517 8.51168C6.21517 8.51168 5.84073 11.1111 6.07974 16.3449C6.44078 24.2513 15.9993 29.0004 16.0001 29L16.0004 28.9998C16.0645 28.9678 25.5607 24.2249 25.9204 16.3449C26.1594 11.111 25.7849 8.51168 25.7849 8.51168ZM16.0009 10.3321C13.3057 10.3321 11.1129 12.6064 11.1129 15.402C11.1129 17.7339 12.3387 19.5644 14.756 20.8424C16.3377 21.6787 18.6973 22.2915 21.1905 22.6147C20.7757 23.2372 19.6696 24.3006 19.0228 24.6609C16.0376 24.1675 13.4157 23.1256 11.6233 21.5645C9.7062 19.8946 8.6928 17.7156 8.6928 15.2626C8.6928 11.2012 11.9712 7.89697 16.0009 7.89697C20.0307 7.89697 23.3091 11.2012 23.3091 15.2626C23.3091 17.5055 22.2675 19.5647 20.5597 20.8969C19.3902 20.7889 18.1686 20.4546 17.6151 20.1364C19.0419 19.2187 20.893 17.4331 20.893 15.2626C20.893 12.5439 18.6984 10.3321 16.0009 10.3321Z" fill="#fff"/>
</svg>
